<svg width="170" height="45" viewBox="0 0 170 45" fill="none" xmlns="http://www.w3.org/2000/svg">
<path fill-rule="evenodd" clip-rule="evenodd" d="M168.674 38.5989C165.111 37.6021 161.93 36.5285 158.71 35.2641C158.141 35.0739 157.611 34.9206 157.042 34.882C151.133 34.5753 145.867 30.1681 145.867 21.7767C145.867 13.8066 150.753 8.2124 158.066 8.2124C165.454 8.2124 169.848 13.9599 169.848 21.2406C169.848 27.4871 167.006 31.6632 163.255 33.1578V33.3097C165.454 33.9229 167.916 34.4599 170 34.882L168.674 38.5989ZM64.9135 8.44258C62.1482 8.44258 59.5339 8.63364 57.4878 8.97865V34.3836C59.0039 34.5755 61.0489 34.7286 63.7767 34.7286C68.7395 34.7286 72.7939 33.5402 75.3314 31.2037C77.7571 28.9811 79.3096 25.5327 79.3096 20.9341C79.3096 16.5275 77.7946 13.4609 75.3314 11.4309C72.9828 9.43731 69.6869 8.44258 64.9135 8.44258ZM64.7238 30.9733C63.7767 30.9733 62.7921 30.9733 62.1483 30.8576V12.3878C62.7921 12.2365 63.853 12.1202 65.331 12.1202C71.1649 12.1202 74.4225 15.3775 74.3846 21.0865C74.3846 27.6397 70.7854 31.0116 64.7238 30.9733H64.7238ZM100.714 24.9568C100.714 31.8159 95.9396 34.8819 91.242 34.8819C86.0134 34.8819 81.998 31.2418 81.998 25.2641C81.998 19.1336 85.9756 15.3775 91.5449 15.3775C97.0389 15.3775 100.714 19.2861 100.714 24.9568ZM91.3934 31.4708C88.5523 31.4708 86.8092 28.7501 86.8092 25.1483C86.8092 22.0452 88.1355 18.8262 91.4318 18.8262C94.6136 18.8262 95.9021 22.1601 95.9021 25.0721C95.9021 28.8269 94.0449 31.4708 91.3934 31.4708ZM118.1 33.8857C117.115 34.3455 115.184 34.8439 112.872 34.8439C107.114 34.8439 103.363 31.1264 103.363 25.3409C103.363 19.7453 107.151 15.3775 113.63 15.3775C115.333 15.3775 117.077 15.7608 118.139 16.2601L117.304 19.7844C116.549 19.4394 115.448 19.0564 113.782 19.0564C110.22 19.0564 108.098 21.7003 108.136 25.1104C108.136 28.9424 110.6 31.1264 113.782 31.1264C115.41 31.1264 116.549 30.7814 117.457 30.3978L118.1 33.8857ZM126.396 18.9795V8.63346H121.736V34.4597H126.396V23.08H137.193V34.4597H141.853V8.63346H137.193V18.9795H126.396ZM157.915 12.0051C162.537 12.0051 164.922 16.5277 164.922 21.4704C164.922 26.8729 162.346 31.0867 157.838 31.0867C153.367 31.0867 150.753 26.8343 150.792 21.662C150.753 16.4891 153.254 12.0051 157.915 12.0051Z" fill="#292929"/>
<path d="M22.7342 35.9278C22.7413 35.9598 22.7486 35.9917 22.755 36.0239C22.7971 36.1942 22.8476 36.3699 22.9249 36.5628C23.8295 38.8216 25.7536 40.3762 28.0867 40.862H34.698C38.097 40.862 40.8632 38.0965 40.8632 34.6984V8.30092C40.8632 4.90253 38.097 2.13671 34.698 2.13671H8.30002C4.90068 2.13671 2.1362 4.90253 2.1362 8.30092V34.6984C2.1362 38.0965 4.90068 40.862 8.30002 40.862H12.3712C12.3576 42.3136 12.3485 43.026 12.3437 42.9993H8.30002C3.72294 42.9993 0 39.2744 0 34.6984V8.30092C0 3.72398 3.72294 0 8.30002 0H34.698C39.2753 0 43 3.72398 43 8.30092V34.6984C43 39.2744 39.2753 42.9993 34.698 42.9993L29.7575 42.9763C25.7 43.0517 22.1826 40.7302 21.1298 36.821C21.0666 36.5876 20.9949 36.3685 20.9138 36.1603L20.6704 35.9323C20.0989 35.3989 19.5285 34.8655 18.9487 34.3413C18.1831 33.6506 17.4095 32.969 16.6342 32.2892C16.2558 31.9576 15.8772 31.6302 15.498 31.3009C14.8815 30.7672 14.2658 30.2336 13.6579 29.6899C12.657 28.7945 11.9032 28.0914 11.215 27.4141C10.3781 26.5907 9.66093 25.7028 9.08454 24.7762C8.27282 23.4703 7.76091 22.0112 7.56458 20.4405C7.51212 20.0169 7.48633 19.5973 7.4611 19.192C7.45079 19.0261 7.44133 18.8599 7.429 18.6945C7.3691 17.8842 7.43703 17.0556 7.62935 16.233C7.92314 14.9805 8.48779 13.8702 9.30724 12.9338C10.438 11.6412 11.8559 10.8163 13.524 10.4615L13.5217 10.477C13.7502 10.4217 13.9841 10.3741 14.2254 10.3411C15.6536 10.1391 17.0036 10.3741 18.4118 11.0706C18.7222 11.2242 19.0573 11.3274 19.4141 11.4366C19.6067 11.4962 19.7999 11.5555 19.9888 11.6226C20.6652 11.8659 21.6764 12.2299 21.5371 13.3147C21.4595 13.9017 20.9037 14.5048 20.4167 14.7742C19.6388 15.2012 18.6875 14.7598 18.2384 13.757C17.75 12.6704 16.9506 12.0992 15.7932 12.0124C15.6482 12.0023 15.5006 11.9969 15.3524 11.9969C14.8216 11.9969 13.5418 12.0929 12.4455 12.8284V12.8519C11.8138 13.1789 11.2505 13.6243 10.7492 14.1964C10.139 14.8934 9.7174 15.7263 9.49613 16.671C9.34766 17.3041 9.29492 17.9378 9.3402 18.5549C9.3531 18.7286 9.36399 18.9017 9.37402 19.0751C9.39839 19.4683 9.42046 19.8392 9.4666 20.2027C9.62855 21.4967 10.0476 22.6939 10.7126 23.7638C11.2093 24.5623 11.8307 25.3305 12.5595 26.0479C13.2257 26.7048 13.9583 27.3866 14.9362 28.2617C15.5361 28.7988 16.1446 29.3256 16.7528 29.8518C17.1352 30.1837 17.517 30.515 17.8976 30.8478C18.6801 31.5339 19.4609 32.2215 20.2333 32.9197C20.7266 33.3648 21.2135 33.8183 21.7002 34.272C22.072 33.9257 22.444 33.5818 22.8169 33.2381C23.2778 32.8174 23.739 32.3989 24.2047 31.9865C24.8241 31.4379 25.447 30.8954 26.0687 30.3528L26.8766 29.6512C27.3567 29.2353 27.8377 28.8194 28.3126 28.3969L28.4705 28.2556C29.1149 27.683 29.7804 27.0897 30.3995 26.4872C30.8541 26.0438 31.3233 25.5377 31.8323 24.9389C32.6174 24.0172 33.1898 23.0129 33.5349 21.9544C33.9321 20.7355 34.1041 19.3858 34.0577 17.8272C34.0382 17.168 33.9104 16.5285 33.675 15.9267C33.2841 14.9195 32.7077 14.1193 31.9367 13.5002C30.7552 12.137 28.9197 11.9969 28.2573 11.9969C28.1094 11.9969 27.9621 12.0023 27.8168 12.0124C26.66 12.0992 25.8606 12.6704 25.3719 13.757C24.9219 14.7598 23.972 15.2012 23.193 14.7742C22.7069 14.5048 22.1502 13.9017 22.0728 13.3147C21.9333 12.2299 22.9448 11.8659 23.6206 11.6226C23.8095 11.5555 24.0035 11.4962 24.1956 11.4366C24.5527 11.3274 24.8881 11.2242 25.1982 11.0706C26.6064 10.3741 27.9561 10.1391 29.384 10.3411C30.2536 10.4632 31.0407 10.7272 31.7286 11.1124C33.4781 11.9874 34.7376 13.3675 35.4616 15.2308C35.7763 16.0379 35.9477 16.8934 35.974 17.7719C36.0259 19.5543 35.8244 21.1178 35.3564 22.5494C34.9339 23.8455 34.2397 25.0671 33.2918 26.1811C32.7441 26.8257 32.2351 27.3746 31.7363 27.8607C31.0863 28.4933 30.4044 29.1006 29.7452 29.687L29.5878 29.8277C29.106 30.2568 28.6179 30.6784 28.1309 31.1012L27.3289 31.7973C26.7095 32.3376 26.0904 32.8767 25.4756 33.4216C25.0173 33.8268 24.5642 34.2384 24.1122 34.6509C23.6515 35.0745 23.192 35.5003 22.7342 35.9278Z" fill="#292929"/>
<circle cx="14" cy="42" r="3" fill="#FF005C"/>
</svg>
